<svg width="215" height="40" viewBox="0 0 215 40" fill="none" xmlns="http://www.w3.org/2000/svg">
<g clip-path="url(#clip0_1_239)">
<path d="M31 23V26H19V23H17V26C17 27.1 17.9 28 19 28H31C32.1 28 33 27.1 33 26V23H31ZM30 19L28.59 17.59L26 20.17V12H24V20.17L21.41 17.59L20 19L25 24L30 19Z" fill="#1976D2"/>
<path d="M45.9854 25H43.8594L43.873 23.6396H45.9854C46.6006 23.6396 47.1156 23.5052 47.5303 23.2363C47.9495 22.9674 48.264 22.5824 48.4736 22.0811C48.6878 21.5798 48.7949 20.9827 48.7949 20.29V19.75C48.7949 19.2122 48.7334 18.736 48.6104 18.3213C48.4919 17.9066 48.3141 17.5579 48.0771 17.2754C47.8447 16.9928 47.5576 16.7786 47.2158 16.6328C46.8786 16.487 46.4889 16.4141 46.0469 16.4141H43.8184V15.0469H46.0469C46.7077 15.0469 47.3115 15.1585 47.8584 15.3818C48.4053 15.6006 48.877 15.9173 49.2734 16.332C49.6745 16.7467 49.9821 17.2435 50.1963 17.8223C50.4105 18.401 50.5176 19.0482 50.5176 19.7637V20.29C50.5176 21.0055 50.4105 21.6527 50.1963 22.2314C49.9821 22.8102 49.6745 23.307 49.2734 23.7217C48.8724 24.1318 48.3939 24.4486 47.8379 24.6719C47.2865 24.8906 46.6689 25 45.9854 25ZM44.8096 15.0469V25H43.0938V15.0469H44.8096ZM51.8617 21.3838V21.2266C51.8617 20.6934 51.9392 20.1989 52.0941 19.7432C52.2491 19.2829 52.4724 18.8841 52.7641 18.5469C53.0603 18.2051 53.4203 17.9408 53.8441 17.7539C54.2725 17.5625 54.7556 17.4668 55.2934 17.4668C55.8357 17.4668 56.3188 17.5625 56.7426 17.7539C57.171 17.9408 57.5333 18.2051 57.8295 18.5469C58.1257 18.8841 58.3513 19.2829 58.5063 19.7432C58.6612 20.1989 58.7387 20.6934 58.7387 21.2266V21.3838C58.7387 21.917 58.6612 22.4115 58.5063 22.8672C58.3513 23.3229 58.1257 23.7217 57.8295 24.0635C57.5333 24.4007 57.1732 24.665 56.7494 24.8564C56.3256 25.0433 55.8448 25.1367 55.307 25.1367C54.7647 25.1367 54.2794 25.0433 53.851 24.8564C53.4271 24.665 53.0671 24.4007 52.7709 24.0635C52.4747 23.7217 52.2491 23.3229 52.0941 22.8672C51.9392 22.4115 51.8617 21.917 51.8617 21.3838ZM53.5092 21.2266V21.3838C53.5092 21.7165 53.5434 22.0309 53.6117 22.3271C53.6801 22.6234 53.7872 22.8831 53.933 23.1064C54.0788 23.3298 54.2657 23.5052 54.4936 23.6328C54.7214 23.7604 54.9926 23.8242 55.307 23.8242C55.6124 23.8242 55.8767 23.7604 56.1 23.6328C56.3279 23.5052 56.5147 23.3298 56.6605 23.1064C56.8064 22.8831 56.9135 22.6234 56.9818 22.3271C57.0548 22.0309 57.0912 21.7165 57.0912 21.3838V21.2266C57.0912 20.8984 57.0548 20.5885 56.9818 20.2969C56.9135 20.0007 56.8041 19.7386 56.6537 19.5107C56.5079 19.2829 56.321 19.1051 56.0932 18.9775C55.8699 18.8454 55.6033 18.7793 55.2934 18.7793C54.9835 18.7793 54.7146 18.8454 54.4867 18.9775C54.2634 19.1051 54.0788 19.2829 53.933 19.5107C53.7872 19.7386 53.6801 20.0007 53.6117 20.2969C53.5434 20.5885 53.5092 20.8984 53.5092 21.2266ZM62.2293 23.3594L63.9383 17.6035H64.991L64.7039 19.3262L62.9813 25H62.0379L62.2293 23.3594ZM61.2244 17.6035L62.5574 23.3867L62.6668 25H61.6141L59.6111 17.6035H61.2244ZM66.5906 23.3184L67.8826 17.6035H69.4891L67.493 25H66.4402L66.5906 23.3184ZM65.1688 17.6035L66.8572 23.291L67.0691 25H66.1258L64.3826 19.3193L64.0955 17.6035H65.1688ZM72.3439 19.1826V25H70.6965V17.6035H72.2482L72.3439 19.1826ZM72.05 21.0283L71.5168 21.0215C71.5214 20.4974 71.5943 20.0166 71.7355 19.5791C71.8814 19.1416 72.0819 18.7656 72.3371 18.4512C72.5969 18.1367 72.9068 17.8952 73.2668 17.7266C73.6268 17.5534 74.0279 17.4668 74.4699 17.4668C74.8254 17.4668 75.1467 17.5169 75.4338 17.6172C75.7255 17.7129 75.9738 17.8701 76.1789 18.0889C76.3885 18.3076 76.548 18.5924 76.6574 18.9434C76.7668 19.2897 76.8215 19.7158 76.8215 20.2217V25H75.1672V20.2148C75.1672 19.8594 75.1148 19.5791 75.01 19.374C74.9097 19.1644 74.7616 19.0163 74.5656 18.9297C74.3742 18.8385 74.135 18.793 73.8479 18.793C73.5653 18.793 73.3124 18.8522 73.0891 18.9707C72.8658 19.0892 72.6766 19.251 72.5217 19.4561C72.3713 19.6611 72.2551 19.8981 72.173 20.167C72.091 20.4359 72.05 20.723 72.05 21.0283ZM80.3668 14.5V25H78.7125V14.5H80.3668ZM81.957 21.3838V21.2266C81.957 20.6934 82.0345 20.1989 82.1895 19.7432C82.3444 19.2829 82.5677 18.8841 82.8594 18.5469C83.1556 18.2051 83.5156 17.9408 83.9395 17.7539C84.3678 17.5625 84.8509 17.4668 85.3887 17.4668C85.931 17.4668 86.4141 17.5625 86.8379 17.7539C87.2663 17.9408 87.6286 18.2051 87.9248 18.5469C88.221 18.8841 88.4466 19.2829 88.6016 19.7432C88.7565 20.1989 88.834 20.6934 88.834 21.2266V21.3838C88.834 21.917 88.7565 22.4115 88.6016 22.8672C88.4466 23.3229 88.221 23.7217 87.9248 24.0635C87.6286 24.4007 87.2686 24.665 86.8447 24.8564C86.4209 25.0433 85.9401 25.1367 85.4023 25.1367C84.86 25.1367 84.3747 25.0433 83.9463 24.8564C83.5225 24.665 83.1624 24.4007 82.8662 24.0635C82.57 23.7217 82.3444 23.3229 82.1895 22.8672C82.0345 22.4115 81.957 21.917 81.957 21.3838ZM83.6045 21.2266V21.3838C83.6045 21.7165 83.6387 22.0309 83.707 22.3271C83.7754 22.6234 83.8825 22.8831 84.0283 23.1064C84.1742 23.3298 84.361 23.5052 84.5889 23.6328C84.8167 23.7604 85.0879 23.8242 85.4023 23.8242C85.7077 23.8242 85.972 23.7604 86.1953 23.6328C86.4232 23.5052 86.61 23.3298 86.7559 23.1064C86.9017 22.8831 87.0088 22.6234 87.0771 22.3271C87.1501 22.0309 87.1865 21.7165 87.1865 21.3838V21.2266C87.1865 20.8984 87.1501 20.5885 87.0771 20.2969C87.0088 20.0007 86.8994 19.7386 86.749 19.5107C86.6032 19.2829 86.4163 19.1051 86.1885 18.9775C85.9652 18.8454 85.6986 18.7793 85.3887 18.7793C85.0788 18.7793 84.8099 18.8454 84.582 18.9775C84.3587 19.1051 84.1742 19.2829 84.0283 19.5107C83.8825 19.7386 83.7754 20.0007 83.707 20.2969C83.6387 20.5885 83.6045 20.8984 83.6045 21.2266ZM94.4848 23.5166V19.9893C94.4848 19.7249 94.4369 19.4971 94.3412 19.3057C94.2455 19.1143 94.0997 18.9661 93.9037 18.8613C93.7123 18.7565 93.4708 18.7041 93.1791 18.7041C92.9102 18.7041 92.6778 18.7497 92.4818 18.8408C92.2859 18.932 92.1332 19.055 92.0238 19.21C91.9145 19.3649 91.8598 19.5404 91.8598 19.7363H90.2191C90.2191 19.4447 90.2898 19.1621 90.4311 18.8887C90.5723 18.6152 90.7774 18.3714 91.0463 18.1572C91.3152 17.943 91.6365 17.7744 92.0102 17.6514C92.3839 17.5283 92.8031 17.4668 93.268 17.4668C93.824 17.4668 94.3161 17.5602 94.7445 17.7471C95.1775 17.9339 95.517 18.2165 95.7631 18.5947C96.0137 18.9684 96.1391 19.4378 96.1391 20.0029V23.291C96.1391 23.6283 96.1618 23.9313 96.2074 24.2002C96.2576 24.4645 96.3282 24.6947 96.4193 24.8906V25H94.7309C94.6534 24.8223 94.5919 24.5967 94.5463 24.3232C94.5053 24.0452 94.4848 23.7764 94.4848 23.5166ZM94.724 20.502L94.7377 21.5205H93.5551C93.2497 21.5205 92.9809 21.5501 92.7484 21.6094C92.516 21.6641 92.3223 21.7461 92.1674 21.8555C92.0124 21.9648 91.8962 22.097 91.8187 22.252C91.7413 22.4069 91.7025 22.5824 91.7025 22.7783C91.7025 22.9743 91.7481 23.1543 91.8393 23.3184C91.9304 23.4779 92.0626 23.6032 92.2357 23.6943C92.4135 23.7855 92.6277 23.8311 92.8783 23.8311C93.2156 23.8311 93.5095 23.7627 93.7602 23.626C94.0154 23.4847 94.2159 23.3138 94.3617 23.1133C94.5076 22.9082 94.585 22.7145 94.5941 22.5322L95.1273 23.2637C95.0727 23.4505 94.9792 23.651 94.8471 23.8652C94.7149 24.0794 94.5417 24.2845 94.3275 24.4805C94.1179 24.6719 93.865 24.8291 93.5687 24.9521C93.2771 25.0752 92.9398 25.1367 92.557 25.1367C92.074 25.1367 91.6433 25.041 91.265 24.8496C90.8868 24.6536 90.5906 24.3916 90.3764 24.0635C90.1622 23.7308 90.0551 23.3548 90.0551 22.9355C90.0551 22.5436 90.128 22.1973 90.2738 21.8965C90.4242 21.5911 90.643 21.3359 90.9301 21.1309C91.2217 20.9258 91.5772 20.7708 91.9965 20.666C92.4158 20.5566 92.8943 20.502 93.432 20.502H94.724ZM102.473 23.4688V14.5H104.128V25H102.631L102.473 23.4688ZM97.6609 21.3838V21.2402C97.6609 20.6797 97.727 20.1693 97.8592 19.709C97.9913 19.2441 98.1827 18.8454 98.4334 18.5127C98.6841 18.1755 98.9894 17.918 99.3494 17.7402C99.7094 17.5579 100.115 17.4668 100.566 17.4668C101.013 17.4668 101.405 17.5534 101.742 17.7266C102.079 17.8997 102.366 18.1481 102.603 18.4717C102.84 18.7907 103.029 19.1735 103.171 19.6201C103.312 20.0622 103.412 20.5544 103.471 21.0967V21.5547C103.412 22.0833 103.312 22.5664 103.171 23.0039C103.029 23.4414 102.84 23.8197 102.603 24.1387C102.366 24.4577 102.077 24.7038 101.735 24.877C101.398 25.0501 101.004 25.1367 100.553 25.1367C100.106 25.1367 99.7026 25.0433 99.3426 24.8564C98.9871 24.6696 98.6841 24.4076 98.4334 24.0703C98.1827 23.7331 97.9913 23.3366 97.8592 22.8809C97.727 22.4206 97.6609 21.9215 97.6609 21.3838ZM99.3084 21.2402V21.3838C99.3084 21.721 99.338 22.0355 99.3973 22.3271C99.4611 22.6188 99.5591 22.8763 99.6912 23.0996C99.8234 23.3184 99.9943 23.4915 100.204 23.6191C100.418 23.7422 100.673 23.8037 100.97 23.8037C101.343 23.8037 101.651 23.7217 101.892 23.5576C102.134 23.3936 102.323 23.1725 102.46 22.8945C102.601 22.612 102.697 22.2975 102.747 21.9512V20.7139C102.72 20.445 102.663 20.1943 102.576 19.9619C102.494 19.7295 102.382 19.5267 102.241 19.3535C102.1 19.1758 101.924 19.0391 101.715 18.9434C101.51 18.8431 101.266 18.793 100.983 18.793C100.682 18.793 100.427 18.8568 100.218 18.9844C100.008 19.112 99.8348 19.2874 99.698 19.5107C99.5659 19.734 99.4679 19.9938 99.4041 20.29C99.3403 20.5863 99.3084 20.903 99.3084 21.2402ZM109.701 15.0469H113.221C113.978 15.0469 114.623 15.1608 115.156 15.3887C115.689 15.6165 116.097 15.9538 116.379 16.4004C116.667 16.8424 116.81 17.3893 116.81 18.041C116.81 18.5378 116.719 18.9753 116.537 19.3535C116.354 19.7318 116.097 20.0508 115.764 20.3105C115.432 20.5658 115.035 20.764 114.575 20.9053L114.055 21.1582H110.89L110.877 19.7979H113.249C113.659 19.7979 114.001 19.7249 114.274 19.5791C114.547 19.4333 114.753 19.235 114.889 18.9844C115.031 18.7292 115.101 18.4421 115.101 18.123C115.101 17.7767 115.033 17.4759 114.896 17.2207C114.764 16.9609 114.559 16.7627 114.281 16.626C114.003 16.4847 113.65 16.4141 113.221 16.4141H111.417V25H109.701V15.0469ZM115.381 25L113.044 20.5293L114.841 20.5225L117.213 24.9111V25H115.381ZM121.716 25.1367C121.169 25.1367 120.674 25.0479 120.232 24.8701C119.795 24.6878 119.421 24.4349 119.111 24.1113C118.806 23.7878 118.571 23.4072 118.407 22.9697C118.243 22.5322 118.161 22.0605 118.161 21.5547V21.2812C118.161 20.7025 118.245 20.1784 118.414 19.709C118.583 19.2396 118.817 18.8385 119.118 18.5059C119.419 18.1686 119.774 17.9111 120.185 17.7334C120.595 17.5557 121.039 17.4668 121.518 17.4668C122.046 17.4668 122.509 17.5557 122.905 17.7334C123.302 17.9111 123.63 18.1618 123.89 18.4854C124.154 18.8044 124.35 19.1849 124.478 19.627C124.61 20.069 124.676 20.5566 124.676 21.0898V21.7939H118.961V20.6113H123.049V20.4814C123.04 20.1852 122.98 19.9072 122.871 19.6475C122.766 19.3877 122.604 19.1781 122.386 19.0186C122.167 18.859 121.875 18.7793 121.511 18.7793C121.237 18.7793 120.993 18.8385 120.779 18.957C120.57 19.071 120.394 19.2373 120.253 19.4561C120.112 19.6748 120.002 19.9391 119.925 20.249C119.852 20.5544 119.815 20.8984 119.815 21.2812V21.5547C119.815 21.8783 119.859 22.179 119.945 22.457C120.036 22.7305 120.169 22.9697 120.342 23.1748C120.515 23.3799 120.725 23.5417 120.971 23.6602C121.217 23.7741 121.497 23.8311 121.812 23.8311C122.208 23.8311 122.561 23.7513 122.871 23.5918C123.181 23.4323 123.45 23.2067 123.678 22.915L124.546 23.7559C124.386 23.9883 124.179 24.2116 123.924 24.4258C123.669 24.6354 123.356 24.8063 122.987 24.9385C122.623 25.0706 122.199 25.1367 121.716 25.1367ZM127.715 19.0254V27.8438H126.068V17.6035H127.585L127.715 19.0254ZM132.535 21.2334V21.377C132.535 21.9147 132.471 22.4137 132.343 22.874C132.22 23.3298 132.036 23.7285 131.789 24.0703C131.548 24.4076 131.249 24.6696 130.894 24.8564C130.538 25.0433 130.128 25.1367 129.663 25.1367C129.203 25.1367 128.8 25.0524 128.454 24.8838C128.112 24.7106 127.822 24.4668 127.585 24.1523C127.348 23.8379 127.157 23.4688 127.011 23.0449C126.87 22.6165 126.77 22.1471 126.71 21.6367V21.083C126.77 20.5407 126.87 20.0485 127.011 19.6064C127.157 19.1644 127.348 18.7839 127.585 18.4648C127.822 18.1458 128.112 17.8997 128.454 17.7266C128.795 17.5534 129.194 17.4668 129.65 17.4668C130.115 17.4668 130.527 17.5579 130.887 17.7402C131.247 17.918 131.55 18.1732 131.796 18.5059C132.042 18.834 132.227 19.2305 132.35 19.6953C132.473 20.1556 132.535 20.6683 132.535 21.2334ZM130.887 21.377V21.2334C130.887 20.8916 130.855 20.5749 130.791 20.2832C130.728 19.987 130.627 19.7272 130.491 19.5039C130.354 19.2806 130.178 19.1074 129.964 18.9844C129.755 18.8568 129.502 18.793 129.205 18.793C128.914 18.793 128.663 18.8431 128.454 18.9434C128.244 19.0391 128.068 19.1735 127.927 19.3467C127.786 19.5199 127.676 19.7227 127.599 19.9551C127.522 20.1829 127.467 20.4313 127.435 20.7002V22.0264C127.49 22.3545 127.583 22.6553 127.715 22.9287C127.847 23.2021 128.034 23.4209 128.276 23.585C128.522 23.7445 128.836 23.8242 129.219 23.8242C129.515 23.8242 129.768 23.7604 129.978 23.6328C130.188 23.5052 130.358 23.3298 130.491 23.1064C130.627 22.8786 130.728 22.6165 130.791 22.3203C130.855 22.0241 130.887 21.7096 130.887 21.377ZM133.721 21.3838V21.2266C133.721 20.6934 133.799 20.1989 133.954 19.7432C134.109 19.2829 134.332 18.8841 134.624 18.5469C134.92 18.2051 135.28 17.9408 135.704 17.7539C136.132 17.5625 136.615 17.4668 137.153 17.4668C137.695 17.4668 138.179 17.5625 138.602 17.7539C139.031 17.9408 139.393 18.2051 139.689 18.5469C139.985 18.8841 140.211 19.2829 140.366 19.7432C140.521 20.1989 140.598 20.6934 140.598 21.2266V21.3838C140.598 21.917 140.521 22.4115 140.366 22.8672C140.211 23.3229 139.985 23.7217 139.689 24.0635C139.393 24.4007 139.033 24.665 138.609 24.8564C138.185 25.0433 137.705 25.1367 137.167 25.1367C136.624 25.1367 136.139 25.0433 135.711 24.8564C135.287 24.665 134.927 24.4007 134.631 24.0635C134.334 23.7217 134.109 23.3229 133.954 22.8672C133.799 22.4115 133.721 21.917 133.721 21.3838ZM135.369 21.2266V21.3838C135.369 21.7165 135.403 22.0309 135.471 22.3271C135.54 22.6234 135.647 22.8831 135.793 23.1064C135.939 23.3298 136.125 23.5052 136.353 23.6328C136.581 23.7604 136.852 23.8242 137.167 23.8242C137.472 23.8242 137.736 23.7604 137.96 23.6328C138.188 23.5052 138.374 23.3298 138.52 23.1064C138.666 22.8831 138.773 22.6234 138.842 22.3271C138.915 22.0309 138.951 21.7165 138.951 21.3838V21.2266C138.951 20.8984 138.915 20.5885 138.842 20.2969C138.773 20.0007 138.664 19.7386 138.513 19.5107C138.368 19.2829 138.181 19.1051 137.953 18.9775C137.73 18.8454 137.463 18.7793 137.153 18.7793C136.843 18.7793 136.574 18.8454 136.346 18.9775C136.123 19.1051 135.939 19.2829 135.793 19.5107C135.647 19.7386 135.54 20.0007 135.471 20.2969C135.403 20.5885 135.369 20.8984 135.369 21.2266ZM143.734 19.0117V25H142.086V17.6035H143.658L143.734 19.0117ZM145.996 17.5557L145.983 19.0869C145.882 19.0687 145.773 19.055 145.654 19.0459C145.541 19.0368 145.427 19.0322 145.313 19.0322C145.03 19.0322 144.782 19.0732 144.568 19.1553C144.353 19.2327 144.173 19.3467 144.028 19.4971C143.886 19.6429 143.777 19.8206 143.699 20.0303C143.622 20.2399 143.576 20.4746 143.563 20.7344L143.187 20.7617C143.187 20.2969 143.232 19.8662 143.323 19.4697C143.415 19.0732 143.551 18.7246 143.734 18.4238C143.92 18.123 144.153 17.8883 144.431 17.7197C144.713 17.5511 145.039 17.4668 145.408 17.4668C145.509 17.4668 145.616 17.4759 145.73 17.4941C145.848 17.5124 145.937 17.5329 145.996 17.5557ZM150.861 17.6035V18.8066H146.691V17.6035H150.861ZM147.894 15.792H149.542V22.9561C149.542 23.1839 149.574 23.3594 149.637 23.4824C149.706 23.6009 149.799 23.6807 149.918 23.7217C150.036 23.7627 150.175 23.7832 150.335 23.7832C150.449 23.7832 150.558 23.7764 150.663 23.7627C150.768 23.749 150.852 23.7354 150.916 23.7217L150.922 24.9795C150.786 25.0205 150.626 25.057 150.444 25.0889C150.266 25.1208 150.061 25.1367 149.829 25.1367C149.45 25.1367 149.115 25.0706 148.824 24.9385C148.532 24.8018 148.304 24.5807 148.14 24.2754C147.976 23.9701 147.894 23.5645 147.894 23.0586V15.792ZM155.853 21.0693V20.9531C155.853 19.9779 155.958 19.0938 156.167 18.3008C156.382 17.5033 156.66 16.806 157.001 16.209C157.343 15.6074 157.708 15.1107 158.095 14.7188C158.487 14.3223 158.863 14.0374 159.223 13.8643L159.551 14.8076C159.287 15.0036 159.023 15.2747 158.758 15.6211C158.498 15.9674 158.259 16.3936 158.04 16.8994C157.826 17.4007 157.653 17.9886 157.521 18.6631C157.393 19.333 157.329 20.0918 157.329 20.9395V21.083C157.329 21.9307 157.393 22.6917 157.521 23.3662C157.653 24.0361 157.826 24.624 158.04 25.1299C158.259 25.6357 158.498 26.0641 158.758 26.415C159.023 26.7705 159.287 27.0531 159.551 27.2627L159.223 28.165C158.863 27.9873 158.487 27.7002 158.095 27.3037C157.708 26.9118 157.343 26.415 157.001 25.8135C156.66 25.2165 156.382 24.5215 156.167 23.7285C155.958 22.931 155.853 22.0446 155.853 21.0693ZM164.717 21.2881H162.126V19.9277H164.717C165.168 19.9277 165.532 19.8548 165.81 19.709C166.088 19.5632 166.291 19.3626 166.419 19.1074C166.551 18.8477 166.617 18.5514 166.617 18.2188C166.617 17.9043 166.551 17.6104 166.419 17.3369C166.291 17.0589 166.088 16.8356 165.81 16.667C165.532 16.4984 165.168 16.4141 164.717 16.4141H162.652V25H160.936V15.0469H164.717C165.487 15.0469 166.141 15.1836 166.679 15.457C167.221 15.7259 167.633 16.0996 167.916 16.5781C168.198 17.0521 168.34 17.5944 168.34 18.2051C168.34 18.8477 168.198 19.3991 167.916 19.8594C167.633 20.3197 167.221 20.6729 166.679 20.9189C166.141 21.165 165.487 21.2881 164.717 21.2881ZM172.869 25H170.743L170.757 23.6396H172.869C173.485 23.6396 174 23.5052 174.414 23.2363C174.834 22.9674 175.148 22.5824 175.358 22.0811C175.572 21.5798 175.679 20.9827 175.679 20.29V19.75C175.679 19.2122 175.617 18.736 175.494 18.3213C175.376 17.9066 175.198 17.5579 174.961 17.2754C174.729 16.9928 174.442 16.7786 174.1 16.6328C173.763 16.487 173.373 16.4141 172.931 16.4141H170.702V15.0469H172.931C173.592 15.0469 174.196 15.1585 174.742 15.3818C175.289 15.6006 175.761 15.9173 176.157 16.332C176.558 16.7467 176.866 17.2435 177.08 17.8223C177.294 18.401 177.402 19.0482 177.402 19.7637V20.29C177.402 21.0055 177.294 21.6527 177.08 22.2314C176.866 22.8102 176.558 23.307 176.157 23.7217C175.756 24.1318 175.278 24.4486 174.722 24.6719C174.17 24.8906 173.553 25 172.869 25ZM171.694 15.0469V25H169.978V15.0469H171.694ZM180.94 15.0469V25H179.224V15.0469H180.94ZM185.001 19.4014V20.7617H180.503V19.4014H185.001ZM185.568 15.0469V16.4141H180.503V15.0469H185.568ZM190.05 20.9531V21.0693C190.05 22.0309 189.94 22.9082 189.722 23.7012C189.507 24.4941 189.227 25.1914 188.881 25.793C188.539 26.3945 188.168 26.8958 187.767 27.2969C187.37 27.6979 186.99 27.9873 186.625 28.165L186.29 27.2627C186.554 27.0622 186.816 26.7865 187.076 26.4355C187.34 26.0892 187.58 25.6585 187.794 25.1436C188.013 24.6331 188.186 24.0407 188.313 23.3662C188.446 22.6917 188.512 21.9307 188.512 21.083V20.9395C188.512 20.0918 188.443 19.3307 188.307 18.6562C188.174 17.9772 187.997 17.3848 187.773 16.8789C187.55 16.3685 187.309 15.9378 187.049 15.5869C186.789 15.236 186.536 14.9626 186.29 14.7666L186.625 13.8643C186.99 14.0374 187.37 14.3245 187.767 14.7256C188.168 15.1266 188.539 15.6302 188.881 16.2363C189.227 16.8379 189.507 17.5352 189.722 18.3281C189.94 19.1211 190.05 19.9961 190.05 20.9531Z" fill="#1976D2"/>
</g>
<rect x="0.5" y="0.5" width="214" height="39" rx="19.5" stroke="#938F99"/>
<defs>
<clipPath id="clip0_1_239">
<rect width="215" height="40" rx="20" fill="white"/>
</clipPath>
</defs>
</svg>
