<svg width="215" height="40" viewBox="0 0 215 40" fill="none" xmlns="http://www.w3.org/2000/svg">
<g clip-path="url(#clip0_1_248)">
<path fill-rule="evenodd" clip-rule="evenodd" d="M15 20C15 14.48 19.47 10 24.99 10C30.52 10 35 14.48 35 20C35 25.52 30.52 30 24.99 30C19.47 30 15 25.52 15 20ZM28.97 16H31.92C30.96 14.35 29.43 13.07 27.59 12.44C28.19 13.55 28.65 14.75 28.97 16ZM25 12.04C25.83 13.24 26.48 14.57 26.91 16H23.09C23.52 14.57 24.17 13.24 25 12.04ZM17 20C17 20.69 17.1 21.36 17.26 22H20.64C20.56 21.34 20.5 20.68 20.5 20C20.5 19.32 20.56 18.66 20.64 18H17.26C17.1 18.64 17 19.31 17 20ZM18.08 24H21.03C21.35 25.25 21.81 26.45 22.41 27.56C20.57 26.93 19.04 25.66 18.08 24ZM18.08 16H21.03C21.35 14.75 21.81 13.55 22.41 12.44C20.57 13.07 19.04 14.34 18.08 16ZM25 27.96C24.17 26.76 23.52 25.43 23.09 24H26.91C26.48 25.43 25.83 26.76 25 27.96ZM22.5 20C22.5 20.68 22.57 21.34 22.66 22H27.34C27.43 21.34 27.5 20.68 27.5 20C27.5 19.32 27.43 18.65 27.34 18H22.66C22.57 18.65 22.5 19.32 22.5 20ZM27.59 27.56C28.19 26.45 28.65 25.25 28.97 24H31.92C30.96 25.65 29.43 26.93 27.59 27.56ZM29.5 20C29.5 20.68 29.44 21.34 29.36 22H32.74C32.9 21.36 33 20.69 33 20C33 19.31 32.9 18.64 32.74 18H29.36C29.44 18.66 29.5 19.32 29.5 20Z" fill="#1976D2"/>
<path d="M48.7244 15.0469H50.4334V21.6982C50.4334 22.4548 50.2693 23.0882 49.9412 23.5986C49.6131 24.109 49.1665 24.4941 48.6014 24.7539C48.0408 25.0091 47.4142 25.1367 46.7215 25.1367C46.006 25.1367 45.368 25.0091 44.8074 24.7539C44.2469 24.4941 43.8048 24.109 43.4812 23.5986C43.1622 23.0882 43.0027 22.4548 43.0027 21.6982V15.0469H44.7117V21.6982C44.7117 22.1768 44.7937 22.571 44.9578 22.8809C45.1219 23.1862 45.3543 23.4118 45.6551 23.5576C45.9559 23.7035 46.3113 23.7764 46.7215 23.7764C47.1316 23.7764 47.4848 23.7035 47.7811 23.5576C48.0818 23.4118 48.3143 23.1862 48.4783 22.8809C48.6424 22.571 48.7244 22.1768 48.7244 21.6982V15.0469ZM56.385 22.9971C56.385 22.833 56.3439 22.6849 56.2619 22.5527C56.1799 22.416 56.0227 22.293 55.7902 22.1836C55.5624 22.0742 55.2251 21.974 54.7785 21.8828C54.3866 21.7962 54.0266 21.6937 53.6984 21.5752C53.3749 21.4521 53.0969 21.304 52.8645 21.1309C52.632 20.9577 52.452 20.7526 52.3244 20.5156C52.1968 20.2786 52.133 20.0052 52.133 19.6953C52.133 19.3945 52.1991 19.1097 52.3312 18.8408C52.4634 18.5719 52.6525 18.335 52.8986 18.1299C53.1447 17.9248 53.4432 17.763 53.7941 17.6445C54.1496 17.526 54.5461 17.4668 54.9836 17.4668C55.6034 17.4668 56.1343 17.5716 56.5764 17.7812C57.023 17.9863 57.3648 18.2666 57.6018 18.6221C57.8387 18.973 57.9572 19.3695 57.9572 19.8115H56.3098C56.3098 19.6156 56.2596 19.4333 56.1594 19.2646C56.0637 19.0915 55.9178 18.9525 55.7219 18.8477C55.5259 18.7383 55.2798 18.6836 54.9836 18.6836C54.701 18.6836 54.4663 18.7292 54.2795 18.8203C54.0972 18.9069 53.9605 19.0208 53.8693 19.1621C53.7827 19.3034 53.7395 19.4583 53.7395 19.627C53.7395 19.75 53.7622 19.8617 53.8078 19.9619C53.8579 20.0576 53.94 20.1465 54.0539 20.2285C54.1678 20.306 54.3228 20.3789 54.5187 20.4473C54.7193 20.5156 54.9699 20.5817 55.2707 20.6455C55.8358 20.764 56.3212 20.9167 56.7268 21.1035C57.1369 21.2858 57.4514 21.5228 57.6701 21.8145C57.8889 22.1016 57.9982 22.4661 57.9982 22.9082C57.9982 23.2363 57.9276 23.5371 57.7863 23.8105C57.6496 24.0794 57.4491 24.3141 57.1848 24.5146C56.9204 24.7106 56.6037 24.8633 56.2346 24.9727C55.87 25.082 55.4598 25.1367 55.0041 25.1367C54.3342 25.1367 53.7668 25.0182 53.302 24.7812C52.8371 24.5397 52.4839 24.2321 52.2424 23.8584C52.0054 23.4801 51.8869 23.0882 51.8869 22.6826H53.4797C53.4979 22.988 53.5822 23.2318 53.7326 23.4141C53.8876 23.5918 54.079 23.7217 54.3068 23.8037C54.5393 23.8812 54.7785 23.9199 55.0246 23.9199C55.3208 23.9199 55.5692 23.8812 55.7697 23.8037C55.9702 23.7217 56.1229 23.6123 56.2277 23.4756C56.3325 23.3343 56.385 23.1748 56.385 22.9971ZM62.8014 25.1367C62.2545 25.1367 61.76 25.0479 61.318 24.8701C60.8805 24.6878 60.5068 24.4349 60.1969 24.1113C59.8915 23.7878 59.6568 23.4072 59.4928 22.9697C59.3287 22.5322 59.2467 22.0605 59.2467 21.5547V21.2812C59.2467 20.7025 59.331 20.1784 59.4996 19.709C59.6682 19.2396 59.9029 18.8385 60.2037 18.5059C60.5045 18.1686 60.86 17.9111 61.2701 17.7334C61.6803 17.5557 62.1246 17.4668 62.6031 17.4668C63.1318 17.4668 63.5943 17.5557 63.9908 17.7334C64.3873 17.9111 64.7154 18.1618 64.9752 18.4854C65.2395 18.8044 65.4355 19.1849 65.5631 19.627C65.6952 20.069 65.7613 20.5566 65.7613 21.0898V21.7939H60.0465V20.6113H64.1344V20.4814C64.1253 20.1852 64.066 19.9072 63.9566 19.6475C63.8518 19.3877 63.69 19.1781 63.4713 19.0186C63.2525 18.859 62.9609 18.7793 62.5963 18.7793C62.3228 18.7793 62.079 18.8385 61.8648 18.957C61.6552 19.071 61.4798 19.2373 61.3385 19.4561C61.1972 19.6748 61.0878 19.9391 61.0103 20.249C60.9374 20.5544 60.901 20.8984 60.901 21.2812V21.5547C60.901 21.8783 60.9443 22.179 61.0309 22.457C61.122 22.7305 61.2542 22.9697 61.4273 23.1748C61.6005 23.3799 61.8102 23.5417 62.0562 23.6602C62.3023 23.7741 62.5826 23.8311 62.8971 23.8311C63.2936 23.8311 63.6467 23.7513 63.9566 23.5918C64.2665 23.4323 64.5354 23.2067 64.7633 22.915L65.6314 23.7559C65.4719 23.9883 65.2646 24.2116 65.0094 24.4258C64.7542 24.6354 64.442 24.8063 64.0728 24.9385C63.7083 25.0706 63.2844 25.1367 62.8014 25.1367ZM74.1234 17.6035V18.8066H69.9535V17.6035H74.1234ZM71.1566 15.792H72.8041V22.9561C72.8041 23.1839 72.836 23.3594 72.8998 23.4824C72.9682 23.6009 73.0616 23.6807 73.1801 23.7217C73.2986 23.7627 73.4376 23.7832 73.5971 23.7832C73.711 23.7832 73.8204 23.7764 73.9252 23.7627C74.03 23.749 74.1143 23.7354 74.1781 23.7217L74.185 24.9795C74.0482 25.0205 73.8887 25.057 73.7064 25.0889C73.5287 25.1208 73.3236 25.1367 73.0912 25.1367C72.713 25.1367 72.378 25.0706 72.0863 24.9385C71.7947 24.8018 71.5668 24.5807 71.4027 24.2754C71.2387 23.9701 71.1566 23.5645 71.1566 23.0586V15.792ZM77.1219 14.5V25H75.4812V14.5H77.1219ZM76.8348 21.0283L76.3016 21.0215C76.3061 20.5111 76.3768 20.0394 76.5135 19.6064C76.6547 19.1735 76.8507 18.7975 77.1014 18.4785C77.3566 18.1549 77.6619 17.9066 78.0174 17.7334C78.3728 17.5557 78.7671 17.4668 79.2 17.4668C79.5646 17.4668 79.8927 17.5169 80.1844 17.6172C80.4806 17.7174 80.7358 17.8792 80.95 18.1025C81.1642 18.3213 81.326 18.6084 81.4353 18.9639C81.5493 19.3148 81.6062 19.7432 81.6062 20.249V25H79.952V20.2354C79.952 19.8799 79.8995 19.5973 79.7947 19.3877C79.6945 19.1781 79.5464 19.0277 79.3504 18.9365C79.1544 18.8408 78.9152 18.793 78.6326 18.793C78.3364 18.793 78.0743 18.8522 77.8465 18.9707C77.6232 19.0892 77.4363 19.251 77.2859 19.4561C77.1355 19.6611 77.0216 19.8981 76.9441 20.167C76.8712 20.4359 76.8348 20.723 76.8348 21.0283ZM86.635 25.1367C86.0881 25.1367 85.5936 25.0479 85.1516 24.8701C84.7141 24.6878 84.3404 24.4349 84.0305 24.1113C83.7251 23.7878 83.4904 23.4072 83.3264 22.9697C83.1623 22.5322 83.0803 22.0605 83.0803 21.5547V21.2812C83.0803 20.7025 83.1646 20.1784 83.3332 19.709C83.5018 19.2396 83.7365 18.8385 84.0373 18.5059C84.3381 18.1686 84.6936 17.9111 85.1037 17.7334C85.5139 17.5557 85.9582 17.4668 86.4367 17.4668C86.9654 17.4668 87.4279 17.5557 87.8244 17.7334C88.2209 17.9111 88.549 18.1618 88.8088 18.4854C89.0731 18.8044 89.2691 19.1849 89.3967 19.627C89.5288 20.069 89.5949 20.5566 89.5949 21.0898V21.7939H83.8801V20.6113H87.968V20.4814C87.9588 20.1852 87.8996 19.9072 87.7902 19.6475C87.6854 19.3877 87.5236 19.1781 87.3049 19.0186C87.0861 18.859 86.7945 18.7793 86.4299 18.7793C86.1564 18.7793 85.9126 18.8385 85.6984 18.957C85.4888 19.071 85.3133 19.2373 85.1721 19.4561C85.0308 19.6748 84.9214 19.9391 84.8439 20.249C84.771 20.5544 84.7346 20.8984 84.7346 21.2812V21.5547C84.7346 21.8783 84.7779 22.179 84.8644 22.457C84.9556 22.7305 85.0878 22.9697 85.2609 23.1748C85.4341 23.3799 85.6437 23.5417 85.8898 23.6602C86.1359 23.7741 86.4162 23.8311 86.7307 23.8311C87.1271 23.8311 87.4803 23.7513 87.7902 23.5918C88.1001 23.4323 88.369 23.2067 88.5969 22.915L89.465 23.7559C89.3055 23.9883 89.0982 24.2116 88.843 24.4258C88.5878 24.6354 88.2756 24.8063 87.9064 24.9385C87.5419 25.0706 87.118 25.1367 86.635 25.1367ZM97.6221 25H95.4961L95.5098 23.6396H97.6221C98.2373 23.6396 98.7523 23.5052 99.167 23.2363C99.5863 22.9674 99.9007 22.5824 100.11 22.0811C100.325 21.5798 100.432 20.9827 100.432 20.29V19.75C100.432 19.2122 100.37 18.736 100.247 18.3213C100.129 17.9066 99.9508 17.5579 99.7139 17.2754C99.4814 16.9928 99.1943 16.7786 98.8525 16.6328C98.5153 16.487 98.1256 16.4141 97.6836 16.4141H95.4551V15.0469H97.6836C98.3444 15.0469 98.9482 15.1585 99.4951 15.3818C100.042 15.6006 100.514 15.9173 100.91 16.332C101.311 16.7467 101.619 17.2435 101.833 17.8223C102.047 18.401 102.154 19.0482 102.154 19.7637V20.29C102.154 21.0055 102.047 21.6527 101.833 22.2314C101.619 22.8102 101.311 23.307 100.91 23.7217C100.509 24.1318 100.031 24.4486 99.4746 24.6719C98.9232 24.8906 98.3057 25 97.6221 25ZM96.4463 15.0469V25H94.7305V15.0469H96.4463ZM107.703 16.373L104.729 25H102.931L106.677 15.0469H107.826L107.703 16.373ZM110.191 25L107.21 16.373L107.08 15.0469H108.236L111.996 25H110.191ZM110.047 21.3086V22.6689H104.633V21.3086H110.047ZM114.577 19.0254V27.8438H112.929V17.6035H114.447L114.577 19.0254ZM119.396 21.2334V21.377C119.396 21.9147 119.332 22.4137 119.205 22.874C119.082 23.3298 118.897 23.7285 118.651 24.0703C118.41 24.4076 118.111 24.6696 117.756 24.8564C117.4 25.0433 116.99 25.1367 116.525 25.1367C116.065 25.1367 115.662 25.0524 115.315 24.8838C114.973 24.7106 114.684 24.4668 114.447 24.1523C114.21 23.8379 114.019 23.4688 113.873 23.0449C113.732 22.6165 113.631 22.1471 113.572 21.6367V21.083C113.631 20.5407 113.732 20.0485 113.873 19.6064C114.019 19.1644 114.21 18.7839 114.447 18.4648C114.684 18.1458 114.973 17.8997 115.315 17.7266C115.657 17.5534 116.056 17.4668 116.512 17.4668C116.976 17.4668 117.389 17.5579 117.749 17.7402C118.109 17.918 118.412 18.1732 118.658 18.5059C118.904 18.834 119.089 19.2305 119.212 19.6953C119.335 20.1556 119.396 20.6683 119.396 21.2334ZM117.749 21.377V21.2334C117.749 20.8916 117.717 20.5749 117.653 20.2832C117.589 19.987 117.489 19.7272 117.352 19.5039C117.216 19.2806 117.04 19.1074 116.826 18.9844C116.616 18.8568 116.363 18.793 116.067 18.793C115.776 18.793 115.525 18.8431 115.315 18.9434C115.106 19.0391 114.93 19.1735 114.789 19.3467C114.648 19.5199 114.538 19.7227 114.461 19.9551C114.383 20.1829 114.329 20.4313 114.297 20.7002V22.0264C114.351 22.3545 114.445 22.6553 114.577 22.9287C114.709 23.2021 114.896 23.4209 115.137 23.585C115.384 23.7445 115.698 23.8242 116.081 23.8242C116.377 23.8242 116.63 23.7604 116.84 23.6328C117.049 23.5052 117.22 23.3298 117.352 23.1064C117.489 22.8786 117.589 22.6165 117.653 22.3203C117.717 22.0241 117.749 21.7096 117.749 21.377ZM122.552 19.0254V27.8438H120.904V17.6035H122.422L122.552 19.0254ZM127.371 21.2334V21.377C127.371 21.9147 127.307 22.4137 127.18 22.874C127.057 23.3298 126.872 23.7285 126.626 24.0703C126.385 24.4076 126.086 24.6696 125.731 24.8564C125.375 25.0433 124.965 25.1367 124.5 25.1367C124.04 25.1367 123.637 25.0524 123.29 24.8838C122.948 24.7106 122.659 24.4668 122.422 24.1523C122.185 23.8379 121.994 23.4688 121.848 23.0449C121.707 22.6165 121.606 22.1471 121.547 21.6367V21.083C121.606 20.5407 121.707 20.0485 121.848 19.6064C121.994 19.1644 122.185 18.7839 122.422 18.4648C122.659 18.1458 122.948 17.8997 123.29 17.7266C123.632 17.5534 124.031 17.4668 124.487 17.4668C124.951 17.4668 125.364 17.5579 125.724 17.7402C126.084 17.918 126.387 18.1732 126.633 18.5059C126.879 18.834 127.064 19.2305 127.187 19.6953C127.31 20.1556 127.371 20.6683 127.371 21.2334ZM125.724 21.377V21.2334C125.724 20.8916 125.692 20.5749 125.628 20.2832C125.564 19.987 125.464 19.7272 125.327 19.5039C125.191 19.2806 125.015 19.1074 124.801 18.9844C124.591 18.8568 124.338 18.793 124.042 18.793C123.751 18.793 123.5 18.8431 123.29 18.9434C123.081 19.0391 122.905 19.1735 122.764 19.3467C122.623 19.5199 122.513 19.7227 122.436 19.9551C122.358 20.1829 122.304 20.4313 122.272 20.7002V22.0264C122.326 22.3545 122.42 22.6553 122.552 22.9287C122.684 23.2021 122.871 23.4209 123.112 23.585C123.359 23.7445 123.673 23.8242 124.056 23.8242C124.352 23.8242 124.605 23.7604 124.815 23.6328C125.024 23.5052 125.195 23.3298 125.327 23.1064C125.464 22.8786 125.564 22.6165 125.628 22.3203C125.692 22.0241 125.724 21.7096 125.724 21.377ZM132.493 21.0693V20.9531C132.493 19.9779 132.598 19.0938 132.808 18.3008C133.022 17.5033 133.3 16.806 133.642 16.209C133.983 15.6074 134.348 15.1107 134.735 14.7188C135.127 14.3223 135.503 14.0374 135.863 13.8643L136.191 14.8076C135.927 15.0036 135.663 15.2747 135.398 15.6211C135.139 15.9674 134.899 16.3936 134.681 16.8994C134.466 17.4007 134.293 17.9886 134.161 18.6631C134.034 19.333 133.97 20.0918 133.97 20.9395V21.083C133.97 21.9307 134.034 22.6917 134.161 23.3662C134.293 24.0361 134.466 24.624 134.681 25.1299C134.899 25.6357 135.139 26.0641 135.398 26.415C135.663 26.7705 135.927 27.0531 136.191 27.2627L135.863 28.165C135.503 27.9873 135.127 27.7002 134.735 27.3037C134.348 26.9118 133.983 26.415 133.642 25.8135C133.3 25.2165 133.022 24.5215 132.808 23.7285C132.598 22.931 132.493 22.0446 132.493 21.0693ZM139.422 23.3594L141.131 17.6035H142.184L141.897 19.3262L140.174 25H139.231L139.422 23.3594ZM138.417 17.6035L139.75 23.3867L139.86 25H138.807L136.804 17.6035H138.417ZM143.784 23.3184L145.076 17.6035H146.682L144.686 25H143.633L143.784 23.3184ZM142.362 17.6035L144.05 23.291L144.262 25H143.319L141.576 19.3193L141.288 17.6035H142.362ZM151.164 25.1367C150.617 25.1367 150.123 25.0479 149.68 24.8701C149.243 24.6878 148.869 24.4349 148.559 24.1113C148.254 23.7878 148.019 23.4072 147.855 22.9697C147.691 22.5322 147.609 22.0605 147.609 21.5547V21.2812C147.609 20.7025 147.693 20.1784 147.862 19.709C148.031 19.2396 148.265 18.8385 148.566 18.5059C148.867 18.1686 149.222 17.9111 149.633 17.7334C150.043 17.5557 150.487 17.4668 150.966 17.4668C151.494 17.4668 151.957 17.5557 152.353 17.7334C152.75 17.9111 153.078 18.1618 153.338 18.4854C153.602 18.8044 153.798 19.1849 153.926 19.627C154.058 20.069 154.124 20.5566 154.124 21.0898V21.7939H148.409V20.6113H152.497V20.4814C152.488 20.1852 152.429 19.9072 152.319 19.6475C152.214 19.3877 152.053 19.1781 151.834 19.0186C151.615 18.859 151.323 18.7793 150.959 18.7793C150.685 18.7793 150.442 18.8385 150.227 18.957C150.018 19.071 149.842 19.2373 149.701 19.4561C149.56 19.6748 149.45 19.9391 149.373 20.249C149.3 20.5544 149.263 20.8984 149.263 21.2812V21.5547C149.263 21.8783 149.307 22.179 149.393 22.457C149.485 22.7305 149.617 22.9697 149.79 23.1748C149.963 23.3799 150.173 23.5417 150.419 23.6602C150.665 23.7741 150.945 23.8311 151.26 23.8311C151.656 23.8311 152.009 23.7513 152.319 23.5918C152.629 23.4323 152.898 23.2067 153.126 22.915L153.994 23.7559C153.834 23.9883 153.627 24.2116 153.372 24.4258C153.117 24.6354 152.804 24.8063 152.435 24.9385C152.071 25.0706 151.647 25.1367 151.164 25.1367ZM155.516 14.5H157.163V23.4209L157.006 25H155.516V14.5ZM161.989 21.2334V21.377C161.989 21.9238 161.928 22.4274 161.805 22.8877C161.686 23.3434 161.504 23.7399 161.258 24.0771C161.016 24.4144 160.716 24.6764 160.356 24.8633C160 25.0456 159.588 25.1367 159.118 25.1367C158.658 25.1367 158.257 25.0501 157.915 24.877C157.573 24.7038 157.286 24.4577 157.054 24.1387C156.826 23.8197 156.641 23.4391 156.5 22.9971C156.359 22.555 156.259 22.0674 156.199 21.5342V21.0762C156.259 20.5384 156.359 20.0508 156.5 19.6133C156.641 19.1712 156.826 18.7907 157.054 18.4717C157.286 18.1481 157.571 17.8997 157.908 17.7266C158.25 17.5534 158.649 17.4668 159.105 17.4668C159.579 17.4668 159.996 17.5579 160.356 17.7402C160.72 17.9225 161.023 18.1823 161.265 18.5195C161.506 18.8522 161.686 19.2487 161.805 19.709C161.928 20.1693 161.989 20.6774 161.989 21.2334ZM160.342 21.377V21.2334C160.342 20.9007 160.315 20.5885 160.26 20.2969C160.205 20.0007 160.114 19.7409 159.987 19.5176C159.863 19.2943 159.695 19.1188 159.481 18.9912C159.271 18.859 159.009 18.793 158.695 18.793C158.403 18.793 158.152 18.8431 157.943 18.9434C157.733 19.0436 157.557 19.1803 157.416 19.3535C157.275 19.5267 157.163 19.7272 157.081 19.9551C157.004 20.1829 156.951 20.429 156.924 20.6934V21.9307C156.965 22.2725 157.052 22.5869 157.184 22.874C157.321 23.1566 157.512 23.3844 157.758 23.5576C158.004 23.7262 158.321 23.8105 158.708 23.8105C159.014 23.8105 159.271 23.749 159.481 23.626C159.69 23.5029 159.857 23.332 159.98 23.1133C160.107 22.89 160.198 22.6302 160.253 22.334C160.312 22.0378 160.342 21.7188 160.342 21.377ZM167.633 22.9971C167.633 22.833 167.592 22.6849 167.51 22.5527C167.428 22.416 167.271 22.293 167.039 22.1836C166.811 22.0742 166.474 21.974 166.027 21.8828C165.635 21.7962 165.275 21.6937 164.947 21.5752C164.623 21.4521 164.345 21.304 164.113 21.1309C163.88 20.9577 163.7 20.7526 163.573 20.5156C163.445 20.2786 163.381 20.0052 163.381 19.6953C163.381 19.3945 163.448 19.1097 163.58 18.8408C163.712 18.5719 163.901 18.335 164.147 18.1299C164.393 17.9248 164.692 17.763 165.043 17.6445C165.398 17.526 165.795 17.4668 166.232 17.4668C166.852 17.4668 167.383 17.5716 167.825 17.7812C168.271 17.9863 168.613 18.2666 168.85 18.6221C169.087 18.973 169.206 19.3695 169.206 19.8115H167.558C167.558 19.6156 167.508 19.4333 167.408 19.2646C167.312 19.0915 167.166 18.9525 166.97 18.8477C166.774 18.7383 166.528 18.6836 166.232 18.6836C165.949 18.6836 165.715 18.7292 165.528 18.8203C165.346 18.9069 165.209 19.0208 165.118 19.1621C165.031 19.3034 164.988 19.4583 164.988 19.627C164.988 19.75 165.011 19.8617 165.056 19.9619C165.106 20.0576 165.188 20.1465 165.302 20.2285C165.416 20.306 165.571 20.3789 165.767 20.4473C165.968 20.5156 166.218 20.5817 166.519 20.6455C167.084 20.764 167.57 20.9167 167.975 21.1035C168.385 21.2858 168.7 21.5228 168.919 21.8145C169.137 22.1016 169.247 22.4661 169.247 22.9082C169.247 23.2363 169.176 23.5371 169.035 23.8105C168.898 24.0794 168.698 24.3141 168.433 24.5146C168.169 24.7106 167.852 24.8633 167.483 24.9727C167.118 25.082 166.708 25.1367 166.253 25.1367C165.583 25.1367 165.015 25.0182 164.55 24.7812C164.086 24.5397 163.732 24.2321 163.491 23.8584C163.254 23.4801 163.135 23.0882 163.135 22.6826H164.728C164.746 22.988 164.831 23.2318 164.981 23.4141C165.136 23.5918 165.327 23.7217 165.555 23.8037C165.788 23.8812 166.027 23.9199 166.273 23.9199C166.569 23.9199 166.818 23.8812 167.018 23.8037C167.219 23.7217 167.371 23.6123 167.476 23.4756C167.581 23.3343 167.633 23.1748 167.633 22.9971ZM172.553 17.6035V25H170.898V17.6035H172.553ZM170.789 15.6621C170.789 15.4115 170.871 15.2041 171.035 15.04C171.204 14.8714 171.436 14.7871 171.732 14.7871C172.024 14.7871 172.254 14.8714 172.423 15.04C172.591 15.2041 172.676 15.4115 172.676 15.6621C172.676 15.9082 172.591 16.1133 172.423 16.2773C172.254 16.4414 172.024 16.5234 171.732 16.5234C171.436 16.5234 171.204 16.4414 171.035 16.2773C170.871 16.1133 170.789 15.9082 170.789 15.6621ZM177.848 17.6035V18.8066H173.678V17.6035H177.848ZM174.881 15.792H176.529V22.9561C176.529 23.1839 176.561 23.3594 176.624 23.4824C176.693 23.6009 176.786 23.6807 176.905 23.7217C177.023 23.7627 177.162 23.7832 177.322 23.7832C177.436 23.7832 177.545 23.7764 177.65 23.7627C177.755 23.749 177.839 23.7354 177.903 23.7217L177.91 24.9795C177.773 25.0205 177.613 25.057 177.431 25.0889C177.253 25.1208 177.048 25.1367 176.816 25.1367C176.438 25.1367 176.103 25.0706 175.811 24.9385C175.519 24.8018 175.291 24.5807 175.127 24.2754C174.963 23.9701 174.881 23.5645 174.881 23.0586V15.792ZM182.48 25.1367C181.933 25.1367 181.439 25.0479 180.997 24.8701C180.559 24.6878 180.186 24.4349 179.876 24.1113C179.57 23.7878 179.336 23.4072 179.172 22.9697C179.008 22.5322 178.926 22.0605 178.926 21.5547V21.2812C178.926 20.7025 179.01 20.1784 179.179 19.709C179.347 19.2396 179.582 18.8385 179.883 18.5059C180.183 18.1686 180.539 17.9111 180.949 17.7334C181.359 17.5557 181.804 17.4668 182.282 17.4668C182.811 17.4668 183.273 17.5557 183.67 17.7334C184.066 17.9111 184.394 18.1618 184.654 18.4854C184.918 18.8044 185.114 19.1849 185.242 19.627C185.374 20.069 185.44 20.5566 185.44 21.0898V21.7939H179.725V20.6113H183.813V20.4814C183.804 20.1852 183.745 19.9072 183.636 19.6475C183.531 19.3877 183.369 19.1781 183.15 19.0186C182.931 18.859 182.64 18.7793 182.275 18.7793C182.002 18.7793 181.758 18.8385 181.544 18.957C181.334 19.071 181.159 19.2373 181.017 19.4561C180.876 19.6748 180.767 19.9391 180.689 20.249C180.616 20.5544 180.58 20.8984 180.58 21.2812V21.5547C180.58 21.8783 180.623 22.179 180.71 22.457C180.801 22.7305 180.933 22.9697 181.106 23.1748C181.279 23.3799 181.489 23.5417 181.735 23.6602C181.981 23.7741 182.262 23.8311 182.576 23.8311C182.972 23.8311 183.326 23.7513 183.636 23.5918C183.945 23.4323 184.214 23.2067 184.442 22.915L185.31 23.7559C185.151 23.9883 184.943 24.2116 184.688 24.4258C184.433 24.6354 184.121 24.8063 183.752 24.9385C183.387 25.0706 182.963 25.1367 182.48 25.1367ZM190.004 20.9531V21.0693C190.004 22.0309 189.895 22.9082 189.676 23.7012C189.462 24.4941 189.182 25.1914 188.835 25.793C188.493 26.3945 188.122 26.8958 187.721 27.2969C187.324 27.6979 186.944 27.9873 186.579 28.165L186.244 27.2627C186.509 27.0622 186.771 26.7865 187.03 26.4355C187.295 26.0892 187.534 25.6585 187.748 25.1436C187.967 24.6331 188.14 24.0407 188.268 23.3662C188.4 22.6917 188.466 21.9307 188.466 21.083V20.9395C188.466 20.0918 188.398 19.3307 188.261 18.6562C188.129 17.9772 187.951 17.3848 187.728 16.8789C187.504 16.3685 187.263 15.9378 187.003 15.5869C186.743 15.236 186.49 14.9626 186.244 14.7666L186.579 13.8643C186.944 14.0374 187.324 14.3245 187.721 14.7256C188.122 15.1266 188.493 15.6302 188.835 16.2363C189.182 16.8379 189.462 17.5352 189.676 18.3281C189.895 19.1211 190.004 19.9961 190.004 20.9531Z" fill="#1976D2"/>
</g>
<rect x="0.5" y="0.5" width="214" height="39" rx="19.5" stroke="#938F99"/>
<defs>
<clipPath id="clip0_1_248">
<rect width="215" height="40" rx="20" fill="white"/>
</clipPath>
</defs>
</svg>
